<?xml version="1.0" encoding="UTF-8" standalone="no"?>
<!-- Created with Inkscape (http://www.inkscape.org/) -->

<svg
   xmlns:dc="http://purl.org/dc/elements/1.1/"
   xmlns:cc="http://creativecommons.org/ns#"
   xmlns:rdf="http://www.w3.org/1999/02/22-rdf-syntax-ns#"
   xmlns:svg="http://www.w3.org/2000/svg"
   xmlns="http://www.w3.org/2000/svg"
   xmlns:xlink="http://www.w3.org/1999/xlink"
   xmlns:sodipodi="http://sodipodi.sourceforge.net/DTD/sodipodi-0.dtd"
   xmlns:inkscape="http://www.inkscape.org/namespaces/inkscape"
   width="120.00007"
   height="180"
   id="svg9692"
   version="1.1"
   inkscape:version="0.48.3.1 r9886"
   sodipodi:docname="npp3.svg">
  <defs
     id="defs3">
    <linearGradient
       inkscape:collect="always"
       xlink:href="#linearGradient23416"
       id="linearGradient23422"
       x1="198.12166"
       y1="80.284355"
       x2="244.94426"
       y2="309.78214"
       gradientUnits="userSpaceOnUse"
       gradientTransform="translate(0,6)" />
    <linearGradient
       id="linearGradient23416">
      <stop
         style="stop-color:#e4e4e4;stop-opacity:1;"
         offset="0"
         id="stop23418" />
      <stop
         style="stop-color:#333333;stop-opacity:0;"
         offset="1"
         id="stop23420" />
    </linearGradient>
    <linearGradient
       y2="309.78214"
       x2="244.94426"
       y1="80.284355"
       x1="198.12166"
       gradientTransform="translate(807.70481,-94.229093)"
       gradientUnits="userSpaceOnUse"
       id="linearGradient3025"
       xlink:href="#linearGradient23416"
       inkscape:collect="always" />
    <linearGradient
       y2="64.715645"
       x2="847.01324"
       y1="23.273985"
       x1="847.01324"
       gradientUnits="userSpaceOnUse"
       id="linearGradient10852"
       xlink:href="#linearGradient5079-77"
       inkscape:collect="always" />
    <linearGradient
       inkscape:collect="always"
       id="linearGradient5079-77">
      <stop
         style="stop-color:white;stop-opacity:1;"
         offset="0"
         id="stop5081-45" />
      <stop
         style="stop-color:white;stop-opacity:0"
         offset="1"
         id="stop5083-1" />
    </linearGradient>
    <linearGradient
       y2="64.715645"
       x2="847.01324"
       y1="23.273985"
       x1="847.01324"
       gradientUnits="userSpaceOnUse"
       id="linearGradient4773"
       xlink:href="#linearGradient5079-77"
       inkscape:collect="always" />
    <linearGradient
       y2="64.715645"
       x2="847.01324"
       y1="23.273985"
       x1="847.01324"
       gradientUnits="userSpaceOnUse"
       id="linearGradient4773-1"
       xlink:href="#linearGradient5079-77-8"
       inkscape:collect="always" />
    <linearGradient
       inkscape:collect="always"
       id="linearGradient5079-77-8">
      <stop
         style="stop-color:white;stop-opacity:1;"
         offset="0"
         id="stop5081-45-6" />
      <stop
         style="stop-color:white;stop-opacity:0"
         offset="1"
         id="stop5083-1-0" />
    </linearGradient>
    <linearGradient
       y2="64.715645"
       x2="847.01324"
       y1="23.273985"
       x1="847.01324"
       gradientUnits="userSpaceOnUse"
       id="linearGradient3969-0"
       xlink:href="#linearGradient5079-77-8-2"
       inkscape:collect="always" />
    <linearGradient
       inkscape:collect="always"
       id="linearGradient5079-77-8-2">
      <stop
         style="stop-color:white;stop-opacity:1;"
         offset="0"
         id="stop5081-45-6-2" />
      <stop
         style="stop-color:white;stop-opacity:0"
         offset="1"
         id="stop5083-1-0-1" />
    </linearGradient>
  </defs>
  <sodipodi:namedview
     inkscape:document-units="mm"
     id="base"
     pagecolor="#ffffff"
     bordercolor="#666666"
     borderopacity="1.0"
     inkscape:pageopacity="0.0"
     inkscape:pageshadow="2"
     inkscape:zoom="1"
     inkscape:cx="147.66918"
     inkscape:cy="-155.55521"
     inkscape:current-layer="layer1"
     showgrid="false"
     inkscape:window-width="1376"
     inkscape:window-height="975"
     inkscape:window-x="492"
     inkscape:window-y="71"
     inkscape:window-maximized="0"
     units="px"
     inkscape:showpageshadow="false"
     showborder="false"
     fit-margin-top="0"
     fit-margin-left="0"
     fit-margin-right="0"
     fit-margin-bottom="0">
    <inkscape:grid
       type="xygrid"
       id="grid3887"
       empspacing="5"
       visible="true"
       enabled="true"
       snapvisiblegridlinesonly="true"
       spacingx="1px"
       spacingy="1px"
       originx="1px"
       originy="-18.000003px" />
  </sodipodi:namedview>
  <metadata
     id="metadata4">
    <rdf:RDF>
      <cc:Work
         rdf:about="">
        <dc:format>image/svg+xml</dc:format>
        <dc:type
           rdf:resource="http://purl.org/dc/dcmitype/StillImage" />
        <dc:title></dc:title>
      </cc:Work>
    </rdf:RDF>
  </metadata>
  <g
     inkscape:label="Layer 1"
     inkscape:groupmode="layer"
     id="layer1"
     transform="translate(-338,-234.36218)">
    <path
       sodipodi:nodetypes="czccccc"
       inkscape:connector-curvature="0"
       id="path3934"
       d="m 358.00001,244.36219 c 0,0 20.00001,-10.00001 40.00002,-10.00001 20.00001,0 40.00003,10.00001 40.00003,10.00001 l 0,10 -40.00003,10.00001 -40.00002,-10.00001 z"
       style="fill:#333333;fill-opacity:1;fill-rule:nonzero;stroke:none" />
    <path
       sodipodi:nodetypes="cccczcccczc"
       inkscape:connector-curvature="0"
       id="path3936"
       d="m 338,394.36217 c 10.00001,-20.00001 30.00002,-100.00006 30.00002,-130.00007 l -10.00001,-10.00001 0,-10 c 0,0 20.00001,10 40.00002,10 20.00001,0 40.00003,-10 40.00003,-10 l 0,10 -10.00001,10.00001 c 0,30.00001 20.00001,110.00006 30.00002,130.00007 0,0 -21.24052,20.00001 -60.00004,20.00001 C 359.24051,414.36218 338,394.36217 338,394.36217 z"
       style="fill:#222222;fill-opacity:1;fill-rule:nonzero;stroke:none" />
    <path
       style="fill:#fcd552;fill-opacity:1;fill-rule:nonzero;stroke:none"
       d="m 364.28908,296.86211 c -3.60792,20.67172 -9.40049,44.93558 -15.03907,64.68754 7.82227,4.21875 26.25001,12.81251 48.75002,12.81251 22.50002,0 40.92776,-8.59376 48.75003,-12.81251 -5.63858,-19.75196 -11.39209,-44.01582 -15.00001,-64.68754 -10.16952,3.76088 -23.38363,7.50001 -33.75002,7.50001 -10.36638,0 -23.54143,-3.73913 -33.71095,-7.50001 z"
       id="rect3940"
       inkscape:connector-curvature="0"
       sodipodi:nodetypes="ccsccsc" />
    <path
       inkscape:connector-curvature="0"
       sodipodi:nodetypes="cccccccccccccccccccccccccsssssccscccccsscccsc"
       style="fill:#222222;fill-opacity:1;stroke:none"
       d="m 382.83852,308.71252 -1.6224,1.0961 c -7.691,5.2285 -11.996,12.55491 -12.9692,22.03791 l -0.247,2.32101 10.3474,0 10.33681,0 0.226,-1.28931 c 0.302,-1.7277 1.5774,-3.8862 3.0622,-5.1899 l 1.2143,-1.0643 -4.3303,-7.4893 c -2.381,-4.11941 -4.7145,-8.14431 -5.1791,-8.95061 z m 30.32252,0.01 -1.3431,2.3209 c -0.74,1.2776 -3.0761,5.30261 -5.1791,8.95071 l -3.8145,6.6403 1.2035,1.0643 c 1.4821,1.3013 2.7598,3.4526 3.0622,5.1791 l 0.226,1.28951 10.3367,0 10.34741,0 -0.237,-2.14911 c -1.0511,-9.5488 -5.3306,-16.99871 -12.59311,-21.93071 z m -15.12831,19.68851 c -0.881,-0.05 -2.546,0.239 -3.7299,1.1848 -1.7261,1.3794 -2.4936,2.9567 -2.4922,5.08681 0,2.1515 1.0926,4.0732 2.9549,5.2005 2.8612,1.732 6.92001,0.732 8.59601,-2.1275 1.611,-2.7489 0.914,-6.08071 -1.7299,-8.21991 -1.14921,-0.93 -2.42581,-1.1247 -3.59891,-1.1247 z m 4.28661,14.35181 c 0,0 -0.665,0.233 -1.34321,0.515 -1.5982,0.668 -5.1336,0.76 -7.23,-0.604 -1.6587,2.6915 -3.325,5.4309 -4.8796,8.1359 -2.0903,3.61261 -4.2191,7.29301 -4.7385,8.17711 l -0.945,1.601 2.1597,1.0315 c 1.9821,0.938 5.6884,2.3273 7.8439,2.5788 1.3621,0.159 3.6188,0.227 5.7392,0.164 2.44151,-0.08 7.60601,-0.785 11.89341,-2.8281 l 1.9878,-0.945 -0.655,-1.096 c -0.361,-0.598 -1.8567,-3.174 -3.3202,-5.7271 -3.8783,-6.76621 -6.5114,-11.00291 -6.5114,-11.00291 z"
       id="path3938" />
  </g>
</svg>
